<svg width="1600" height="900" viewBox="0 0 1600 900" fill="none" xmlns="http://www.w3.org/2000/svg">
  <rect width="1600" height="900" rx="40" fill="#14233B"/>
  <circle cx="1310" cy="110" r="240" fill="#D6A15D" fill-opacity="0.18"/>
  <circle cx="180" cy="760" r="280" fill="#2FD0C8" fill-opacity="0.14"/>
  <rect x="120" y="146" width="890" height="600" rx="42" fill="#1B3151"/>
  <rect x="210" y="280" width="620" height="250" rx="28" fill="#F7F2E8"/>
  <rect x="184" y="248" width="674" height="60" rx="22" fill="#D6A15D"/>
  <rect x="250" y="330" width="250" height="130" rx="24" fill="#FFFFFF"/>
  <rect x="540" y="330" width="250" height="130" rx="24" fill="#FFFFFF"/>
  <rect x="876" y="220" width="360" height="220" rx="34" fill="#F7F2E8"/>
  <circle cx="1054" cy="330" r="88" fill="#D6A15D" fill-opacity="0.22"/>
  <path d="M1010 330C1010 305.699 1029.7 286 1054 286C1078.3 286 1098 305.699 1098 330C1098 354.301 1078.3 374 1054 374C1029.7 374 1010 354.301 1010 330Z" fill="#D6A15D"/>
  <rect x="942" y="514" width="422" height="188" rx="34" fill="#1B3151" stroke="#D6A15D" stroke-width="4"/>
  <text x="984" y="592" fill="#F7F2E8" font-family="Arial, sans-serif" font-size="48" font-weight="700">Hotel Linen</text>
  <text x="984" y="650" fill="#D8E3EE" font-family="Arial, sans-serif" font-size="28">Premium bedding, bath, and</text>
  <text x="984" y="688" fill="#D8E3EE" font-family="Arial, sans-serif" font-size="28">guestroom presentation fabrics.</text>
</svg>
