<svg width="1600" height="900" viewBox="0 0 1600 900" fill="none" xmlns="http://www.w3.org/2000/svg">
  <rect width="1600" height="900" rx="40" fill="#0B1F38"/>
  <circle cx="1320" cy="170" r="210" fill="#2FD0C8" fill-opacity="0.16"/>
  <circle cx="180" cy="770" r="260" fill="#E08C62" fill-opacity="0.18"/>
  <rect x="118" y="120" width="760" height="660" rx="36" fill="#102A49"/>
  <rect x="180" y="190" width="260" height="420" rx="26" fill="#F7F2E8"/>
  <rect x="220" y="228" width="180" height="120" rx="18" fill="#D9F5F3"/>
  <rect x="220" y="380" width="180" height="190" rx="18" fill="#E7ECF2"/>
  <rect x="490" y="220" width="300" height="120" rx="24" fill="#D9F5F3" fill-opacity="0.92"/>
  <rect x="490" y="376" width="300" height="84" rx="20" fill="#F7F2E8"/>
  <rect x="490" y="490" width="300" height="84" rx="20" fill="#F7F2E8"/>
  <path d="M1094 222C1094 166.772 1138.77 122 1194 122H1336C1391.23 122 1436 166.772 1436 222V364C1436 419.228 1391.23 464 1336 464H1194C1138.77 464 1094 419.228 1094 364V222Z" fill="#F7F2E8"/>
  <path d="M1214 166H1316V222H1372V322H1316V378H1214V322H1158V222H1214V166Z" fill="#E08C62"/>
  <rect x="1010" y="534" width="386" height="180" rx="32" fill="#102A49" stroke="#2FD0C8" stroke-width="4"/>
  <text x="1046" y="612" fill="#F7F2E8" font-family="Arial, sans-serif" font-size="48" font-weight="700">Hospital Linen</text>
  <text x="1046" y="670" fill="#C9D7E5" font-family="Arial, sans-serif" font-size="28">Sterile-ready fabrics, patient wear,</text>
  <text x="1046" y="708" fill="#C9D7E5" font-family="Arial, sans-serif" font-size="28">and care-focused essentials.</text>
</svg>
